<svg preserveAspectRatio="none" width="100%" height="100%" overflow="visible" style="display: block;" viewBox="0 0 22 14" fill="none" xmlns="http://www.w3.org/2000/svg">
<g id="visa" clip-path="url(#clip0_0_446)">
<path id="Vector" d="M1.12821 0H20.8718C21.4949 0 22 0.501452 22 1.12V12.88C22 13.4986 21.4949 14 20.8718 14H1.12821C0.505126 14 0 13.4986 0 12.88V1.12C0 0.501452 0.505126 0 1.12821 0Z" fill="var(--fill-0, #0E4595)"/>
<path id="Vector_2" d="M8.26974 9.76444L9.21069 4.28316H10.7157L9.77409 9.76444H8.26974ZM15.2113 4.40132C14.9132 4.29027 14.4459 4.1711 13.8625 4.1711C12.3754 4.1711 11.3278 4.9145 11.3189 5.97999C11.3105 6.76763 12.0668 7.207 12.6376 7.4692C13.2234 7.73786 13.4203 7.90919 13.4176 8.14912C13.4139 8.51651 12.9498 8.68437 12.5172 8.68437C11.9148 8.68437 11.5948 8.60129 11.1006 8.39664L10.9066 8.30956L10.6954 9.5366C11.0469 9.6896 11.6969 9.82215 12.3718 9.82901C13.9539 9.82901 14.9808 9.09412 14.9925 7.95631C14.9982 7.33278 14.5972 6.85826 13.7289 6.46705C13.2029 6.21351 12.8807 6.04428 12.8842 5.78754C12.8842 5.55971 13.1568 5.31605 13.746 5.31605C14.2382 5.30849 14.5947 5.41503 14.8725 5.52605L15.0073 5.58933L15.2113 4.40132ZM19.0842 4.28308H17.9212C17.5609 4.28308 17.2913 4.38071 17.1331 4.73763L14.898 9.76083H16.4784L16.7952 8.93712L18.7227 8.93948L18.9057 9.76083H20.3023L19.0842 4.28291V4.28308ZM17.239 7.82256L17.8387 6.29031C17.8298 6.30493 17.9622 5.97296 18.0382 5.76716L18.1399 6.23977L18.4883 7.82256H17.239ZM6.99211 4.28308L5.51867 8.02108L5.36165 7.26144C5.08736 6.38579 4.23274 5.4371 3.27735 4.96213L4.6246 9.75573L6.21695 9.75394L8.58629 4.28302H6.99211" fill="var(--fill-0, white)"/>
<path id="Vector_3" d="M4.1439 4.28288H1.7171L1.69789 4.39692C3.58589 4.85064 4.83515 5.94709 5.35384 7.2644L4.82612 4.74552C4.73502 4.39846 4.47082 4.29489 4.14395 4.28277" fill="var(--fill-0, #F2AE14)"/>
</g>
<defs>
<clipPath id="clip0_0_446">
<rect width="22" height="14" fill="white"/>
</clipPath>
</defs>
</svg>
